<?xml version="1.0" encoding="UTF-8" standalone="no"?>
<svg
   id="svg2"
   version="1.0"
   viewBox="1754 161 3361.3824 6722.6924"
   height="440"
   width="230"
   xml:space="preserve"
   sodipodi:docname="GerAutItl.svg"
   inkscape:version="1.3.2 (091e20ef0f, 2023-11-25)"
   inkscape:export-filename="GerAutItl.svg"
   inkscape:export-xdpi="96"
   inkscape:export-ydpi="96"
   xmlns:inkscape="http://www.inkscape.org/namespaces/inkscape"
   xmlns:sodipodi="http://sodipodi.sourceforge.net/DTD/sodipodi-0.dtd"
   xmlns="http://www.w3.org/2000/svg"
   xmlns:svg="http://www.w3.org/2000/svg"
   xmlns:rdf="http://www.w3.org/1999/02/22-rdf-syntax-ns#"
   xmlns:cc="http://creativecommons.org/ns#"
   xmlns:dc="http://purl.org/dc/elements/1.1/"><sodipodi:namedview
     id="namedview1"
     pagecolor="#ffffff"
     bordercolor="#000000"
     borderopacity="0.25"
     inkscape:showpageshadow="2"
     inkscape:pageopacity="0.0"
     inkscape:pagecheckerboard="0"
     inkscape:deskcolor="#d1d1d1"
     inkscape:zoom="2.1375448"
     inkscape:cx="87.249635"
     inkscape:cy="177.07232"
     inkscape:window-width="1920"
     inkscape:window-height="1008"
     inkscape:window-x="0"
     inkscape:window-y="0"
     inkscape:window-maximized="1"
     inkscape:current-layer="svg2" /><metadata
     id="metadata78"><rdf:RDF><cc:Work
         rdf:about=""><dc:format>image/svg+xml</dc:format><dc:type
           rdf:resource="http://purl.org/dc/dcmitype/StillImage" /><dc:title>Countries of Europe</dc:title></cc:Work></rdf:RDF></metadata><title
     id="title4">Countries of Europe</title><desc
     id="desc6">
  A blank Map of Europe. Every country has an id which is its ISO-3116-1-ALPHA2 code in lower case.
  Members of the EU have a class=&quot;eu&quot;, countries in europe (which I found turkey to be but russia not) have a class=&quot;europe&quot;.
  Image based on a map (http://commons.wikimedia.org/wiki/Image:Europe_countries.svg) by Júlio &quot;Tintazul&quot; Reis.
  made by Marian &quot;maix&quot; Sigler. Released under CreativeCommons Attribution ShareAlike (http://creativecommons.org/licenses/by-sa/2.5/).
  </desc><defs
     id="defs8"
     style="fill:none"><marker
       style="overflow:visible"
       id="ArrowWideRounded"
       refX="0"
       refY="0"
       orient="auto-start-reverse"
       inkscape:stockid="Wide, rounded arrow"
       markerWidth="1"
       markerHeight="1"
       viewBox="0 0 1 1"
       inkscape:isstock="true"
       inkscape:collect="always"
       preserveAspectRatio="xMidYMid"><path
         style="fill:none;stroke:context-stroke;stroke-width:1;stroke-linecap:round"
         d="M 3,-3 0,0 3,3"
         transform="rotate(180,0.125,0)"
         sodipodi:nodetypes="ccc"
         id="path2" /></marker><linearGradient
       id="swatch2"
       inkscape:swatch="solid"><stop
         style="stop-color:#de0027;stop-opacity:1;"
         offset="0"
         id="stop2" /></linearGradient><style
       id="style10"
       type="text/css">
  *    { fill:none; }
  path { fill:#C0C0C0; stroke:white; stroke-width:8; }
  /* stroke-width was originally at around 4px, but this makes it difficult to see when the image is smaller */
  .europe     {}
  .eu         {}
  #ad         {}
  #al         {}
  #am         {}
  #at         { fill:#FF0000; }
  #az         {}
  #ba         {}
  #be         {}
  #bg         {}
  #by         {}
  #ca         {}
  #ch         { fill:#FF0000; }
  #cs         {}
  #cy         {}
  #cz         { fill:#FF0000; }
  #de         { fill:#FF0000; }
  #dk         {}
  #dz         {}
  #ee         {}
  #es         {}
  #fi         {}
  #fr         {}
  #gb         {}
  #ge         {}
  #gl         {}
  #gr         {}
  #hr         {}
  #hu         { fill:#FF0000; }
  #ie         {}
  #il         {}
  #iq         {}
  #ir         {}
  #is         {}
  #it         {}
  #jo         {}
  #kz         {}
  #lb         {}
  #li         {}
  #lt         {}
  #lu         {}
  #lv         {}
  #ma         {}
  #mc         {}
  #md         {}
  #mk         {}
  #mt         {}
  #nl         {}
  #no         {}
  #pl         { fill:#FF0000; }
  #pt         {}
  #ro         {}
  #sa         {}
  #se         {}
  #si         { fill:#FF0000; }
  #sk         { fill:#FF0000; }
  #sm         {}
  #sy         {}
  #tm         {}
  #tn         {}
  #tr         {}
  #ua         {}
  
  
  g.nationGroup, path  {fill:inherit;stroke:inherit}
  g.nationGroup, path { fill:#C0C0C0; stroke:white; stroke-width:8; }
  /* stroke-width was originally at around 4px, but this makes it difficult to see when the image is smaller */
  /* Geographic Features */
  #ocean {opacity:1; fill:white;  }
  #lakes {opacity:0.4; fill:white;  ; stroke:none; stroke-width:8}
 </style></defs><path
     d="m 3616.4551,3473.1721 c -5.7597,60.8703 -77.7584,48.6961 -83.5186,97.392 -5.7595,36.5221 60.4792,30.4348 74.8788,42.6091 20.1595,18.2607 -34.5593,42.6088 -43.1991,70.0003 -11.5199,39.5656 34.5592,-3.0435 40.319,12.1738 5.7602,15.2177 -25.9194,54.7832 -5.7598,66.9574 28.7994,18.2608 143.9975,91.3048 43.1992,85.2179 5.7598,-15.2178 5.7598,-27.3919 -5.7596,-42.6093 -54.7192,-54.7828 -51.8394,-30.4351 -83.5187,12.1742 2.8797,-3.0437 2.8797,-6.0873 2.8797,-6.0873 0,-30.4347 -54.7185,-36.522 -80.6383,-24.3479 -14.3997,9.1305 0,42.609 -11.5198,54.7829 -11.5199,12.1743 -31.6795,3.0435 -48.9591,9.1306 -40.3189,18.2611 -77.7585,66.9569 -123.8379,76.0875 -14.399,3.0435 -28.7992,-12.1736 -40.3188,-3.0432 -11.5198,3.0432 0,21.3042 -5.7599,33.4783 -2.8798,9.1304 -11.5196,21.3046 -17.2798,30.4351 2.8801,-3.0434 2.8801,-6.0874 5.7602,-6.0874 14.3993,0 2.8797,33.4788 14.3993,39.5656 5.7603,3.0438 8.6402,-18.2607 14.3998,-12.1737 5.76,12.1737 17.2797,36.522 5.76,45.6524 -5.76,3.0432 -8.6396,9.1304 -5.76,15.217 2.88,3.0438 8.6396,-3.0431 14.4002,-3.0431 17.2792,15.2174 46.079,24.3479 48.9587,45.6525 17.2797,85.2179 -51.8393,51.7393 -71.9984,103.4788 -5.7603,15.2176 31.6792,179.5668 40.3189,197.8275 17.2797,30.4349 218.876,182.6101 259.1952,206.9579 40.3194,24.3482 51.8389,9.1304 89.2783,42.6091 40.3192,36.5219 95.0383,276.9585 126.7176,337.8282 31.6795,63.9138 97.918,121.7398 149.7569,164.3491 17.2796,12.1741 43.1996,15.2174 57.5994,30.4349 8.6397,6.0873 0,24.3478 5.7594,30.4352 77.7589,85.2179 224.6358,57.8265 316.7944,42.6085 20.1593,-3.0433 63.3586,-36.5216 89.2781,-6.0866 71.9988,85.218 -143.9972,115.653 -34.5595,194.7839 103.6783,73.044 247.6756,66.9568 354.2334,124.7834 37.4396,21.3045 51.8391,54.7829 95.038,70.0004 34.5595,15.2175 129.5978,30.4351 158.3972,54.7831 11.5196,9.1304 0,30.4349 8.6401,39.5655 34.5592,51.7393 126.7175,42.6087 155.5168,149.1312 11.52,39.5657 -14.3998,27.3917 -23.0394,54.7833 -5.7599,15.2174 2.88,76.0869 -8.64,82.1742 -11.5196,9.1306 -31.6795,0 -48.9592,-9.1303 -89.2782,-36.5221 -51.8389,-91.3052 -97.9179,-155.2186 -25.9194,-36.5218 -109.4381,0 -152.6373,-15.2172 -57.5987,-21.3046 -89.2782,-91.3054 -143.9974,-30.4351 -5.7595,9.1305 -77.7582,161.3052 -77.7582,167.3925 0,9.1304 14.3996,18.2607 11.5196,30.4348 -11.5196,57.8266 -69.1185,54.7829 -20.1596,121.7397 28.7998,36.5221 37.4395,3.044 69.1189,12.1742 34.559,12.1742 57.5986,48.696 89.2782,63.9135 11.52,6.0873 28.7996,0 34.5592,12.174 5.7601,9.1306 -11.5194,21.3048 -11.5194,33.4784 2.8796,85.2182 40.3188,6.0872 34.5592,115.653 -2.8801,63.9137 -118.0777,39.5654 -169.917,103.4788 -37.4391,45.6531 11.5198,91.3052 0,146.0881 -8.6396,45.6525 -37.4391,33.4787 -66.2385,57.8266 -69.1189,63.9134 -20.1598,210.0015 -164.1569,167.3921 -28.7996,-9.1303 -60.4791,-88.2611 -43.1993,-121.7397 11.52,-18.2613 40.3193,-15.2174 54.7191,-30.435 8.6397,-12.1739 8.6397,-30.4348 11.5199,-45.6523 2.8796,-15.2175 14.3993,-27.3917 11.5196,-42.6091 -2.8797,-18.261 -31.6793,-27.3916 -28.7996,-45.6528 11.5198,-54.7827 80.6386,-24.3477 100.7981,-54.7827 48.959,-60.8697 -8.6396,-70.0003 -31.6794,-103.4791 -23.0395,-36.5217 -11.5199,-88.2616 -28.7996,-127.8267 -8.6398,-24.3481 -20.1595,-45.6525 -34.559,-63.9136 -2.8801,-6.087 -14.3998,-6.087 -20.1598,-12.1737 -51.8391,-82.1747 2.88,-33.4788 -31.6793,-124.7835 -43.1996,-115.6531 -69.1189,-57.8266 -155.5173,-51.7398 -2.8799,0 2.8801,-9.1304 0,-15.2173 -11.5198,-12.174 -25.9191,-27.3916 -43.199,-36.522 -17.2794,-9.1304 -51.8389,0 -63.3587,-21.3047 -11.5199,-21.3043 23.0396,-42.6089 20.1597,-66.9566 -2.8801,-24.3485 -20.1597,-45.6524 -31.6796,-63.9134 -69.1184,-100.4356 -80.6383,39.5649 -161.2768,9.1304 -8.6398,-3.0436 54.7189,-51.7397 25.9194,-73.0444 -103.6779,-79.1307 -2.8801,3.0438 -115.1978,-12.1735 -8.64,-3.0437 0,-18.2616 -2.8801,-27.3919 -11.5195,-36.522 -71.9986,-133.9136 -100.798,-146.0877 -77.7585,-30.435 -17.2799,27.3914 -43.1994,21.3045 -25.9192,-6.0871 -48.9587,-39.5656 -77.7581,-36.5223 -25.9195,6.0872 -46.0793,42.6092 -69.1187,36.5223 -25.9197,-6.0871 -23.0396,-45.6526 -40.3193,-63.9137 -20.1597,-18.2611 -71.9988,-12.1739 -89.2782,-24.3477 0,0 -43.1993,-63.9137 -43.1993,-63.9137 -20.1597,-18.261 -51.839,-21.3043 -69.1188,-42.6089 -34.5592,-54.7829 5.76,-45.6524 -34.5592,-79.1308 -17.2798,-15.2177 -37.4395,-27.3918 -57.5987,-39.5655 -5.7604,-3.0436 -17.2797,6.0869 -23.0398,3.0432 -31.6793,-27.3915 -31.6793,-79.1307 -63.3588,-106.5224 -54.7191,-48.696 -89.2784,-12.1738 -146.877,-36.522 -8.64,-3.0434 14.3997,-12.174 20.1593,-18.261 17.2797,-24.3477 -17.2797,-63.9133 -25.9195,-73.0438 -5.7599,-6.0872 -17.2796,0 -23.0396,-6.0872 -8.6397,-12.1738 -8.6397,-30.4347 -20.1593,-39.5651 -14.4,-12.1744 -43.1994,-3.0438 -54.7192,-21.3048 -8.6399,-12.1741 17.2797,-36.5219 2.8801,-45.6523 -17.2797,-15.2178 -46.0794,3.0429 -69.1193,-6.0872 -14.399,-6.0868 8.6405,-33.4784 8.6405,-51.7393 8.6399,-60.87 0,-82.1746 -31.6796,-133.9143 -60.4787,-91.3049 -17.2795,-173.4793 -89.2784,-243.4796 -5.7597,-9.1305 -17.2793,-12.1741 -25.9192,-15.2177 -2.8802,0 -5.7602,9.1306 -8.6398,6.0872 -14.4,-6.0872 -23.0397,-24.3481 -37.4395,-24.3481 -8.6398,0 8.6399,27.3915 0,24.3481 -23.0397,-6.0872 -40.3195,-24.3481 -60.4789,-39.5652 -8.6398,-6.0873 -80.6384,-85.2182 -103.6783,-85.2182 -5.7595,0 2.8803,15.2175 -2.8793,18.261 -5.7604,3.0433 -14.4003,0 -17.2802,-6.0872 -14.3996,-18.261 -74.8785,-48.696 -103.6779,-48.696 -11.5198,0 -86.3984,45.6528 -92.1582,57.8265 -5.7599,12.1742 2.88,30.4351 -5.7599,39.5654 -8.6399,12.174 -31.6797,9.1303 -40.3193,18.2612 -20.1593,21.3044 -34.5592,70.0005 -57.599,91.305 -37.4391,39.5651 -103.6778,36.5219 -146.877,42.6088 -14.3997,-54.7829 83.5185,-124.7834 40.3194,-158.2615 -14.3999,-9.1306 -34.5597,3.043 -51.8394,6.0865 -17.2794,0 -37.4392,9.1303 -54.7189,3.044 -31.6793,-9.1305 -106.558,-66.9572 -103.6781,-109.5667 0,-6.0865 14.3998,-6.0865 14.3998,-12.1734 -2.8798,-9.1304 -31.6794,-18.261 -23.0392,-36.5224 11.5196,-12.1737 25.9194,-21.3041 34.5591,-36.5218 2.8798,-3.0434 -5.7599,-9.1305 -2.8802,-15.2173 2.8802,-9.1308 28.7996,6.0868 31.6797,-3.0438 0,-24.3479 -2.8801,-48.696 -11.5199,-66.9566 -14.3998,-24.348 -109.4381,-63.9138 -103.678,-112.6097 0,-15.2175 25.9196,-15.2175 40.3191,-18.2608 8.64,0 14.4003,18.2608 23.0398,15.217 14.3998,-3.0431 106.5579,-82.1741 92.158,-109.5657 -8.6396,-18.2609 -37.439,-21.3044 -46.0792,-42.6091 -8.6397,-12.1736 2.8801,-33.4782 -2.8799,-45.6525 -40.3192,-73.0436 -115.1977,-36.5219 17.2798,-118.6961 28.7995,54.783 106.5581,-6.0873 143.9974,-15.2175 25.9198,-6.0873 46.0792,30.4351 71.9986,30.4351 2.8802,0 83.5185,-88.2619 83.5185,-103.4791 2.8798,-15.2172 -23.0396,-21.3044 -20.1595,-33.4787 5.7599,-18.2608 28.7994,-24.3479 43.199,-36.522 14.3994,-12.1737 25.9196,-24.3479 40.3191,-36.522 5.7601,-3.0436 11.5199,-9.1306 14.3997,-6.0867 5.76,18.2608 2.8802,36.5217 2.8802,54.7828 0,9.1306 -8.6397,21.3045 -5.76,33.4786 20.1596,39.5652 66.2387,48.6959 97.9179,60.8698 2.88,0 8.64,6.0869 8.64,12.1741 -2.88,12.1738 -23.0394,21.3045 -20.1594,33.4783 2.8797,12.1743 23.0394,6.0873 31.6792,15.2178 11.5201,15.2175 17.2797,66.9569 34.5595,51.7389 48.959,-39.5652 -8.64,-27.3911 -8.64,-57.8262 0,-66.9568 69.1185,-85.218 80.6385,-140.0007 0,-6.0869 -31.6793,-88.262 17.2797,-79.1313 37.439,6.0875 -8.6399,66.9571 66.2388,85.2181 46.0791,15.2178 8.6397,-45.6525 86.3984,-30.4346 23.0397,3.0431 11.5196,51.7394 31.6793,63.9132 11.5198,6.0869 34.5594,-6.0866 31.6792,-18.2608 -5.7599,-9.1307 -17.2796,-15.2178 -20.1594,-27.3915 0,-12.1742 17.2795,-21.3048 14.3995,-33.4788 -5.7597,-15.2172 -57.5986,-48.6963 -17.2796,-79.1307 51.8391,-39.5656 31.6794,48.6956 92.1583,33.4782 34.5593,-12.174 -20.1594,-54.7828 -20.1594,-60.8701 5.7598,-12.1737 14.3995,-21.3043 17.2795,-33.4782 5.7596,-12.1743 2.8799,-27.3915 5.7596,-39.5653 0,0 0,0 0,0 46.0792,24.3479 5.7602,-6.0871 51.8395,0 23.0393,3.0432 46.0791,66.9567 92.1579,39.5653 0,0 37.4394,-82.1745 37.4394,-82.1745 23.0397,-18.2609 123.8374,-6.0872 149.7573,-9.1303 43.1991,-3.0437 77.7583,-42.6095 120.9576,-42.6095 11.5199,0 -20.1597,15.2178 -23.0396,27.3918 -14.3999,63.9134 23.0396,21.3045 46.0794,57.8266 5.7595,9.1306 -8.6398,21.3044 -2.8801,33.4785 2.8801,6.0869 11.5198,-6.0872 17.2798,0 54.7187,42.6088 69.1185,48.6956 143.9972,60.8699 71.9984,9.1303 143.9971,15.2176 215.9958,21.3045 z m -313.914,1059.1375 c 5.7597,-9.1303 5.7597,-21.3044 14.3995,-27.3914 23.0398,-24.3481 17.2798,70.0003 -14.3995,27.3914"
     class="eu europe"
     id="it"
     style="fill:#000000;stroke:#ffffff;stroke-width:16.5261" /><path
     d="m 3601.6547,617.99817 c 5.7602,48.69607 51.8389,143.04468 57.5991,173.47962 8.6397,73.04392 -83.5185,121.74006 -63.3589,179.56636 11.52,36.52225 120.9575,51.73955 120.9575,97.39215 0,45.6525 -34.5593,60.8697 -8.6398,94.3486 8.6398,15.217 28.7995,21.3039 34.5596,39.5654 8.6401,15.2173 -2.88,36.5221 0,51.7394 2.8799,9.1305 14.3996,6.0869 17.2798,12.174 14.3995,21.3048 -20.1598,73.0441 -28.7995,91.3049 -17.2798,27.3914 25.9193,42.609 34.5591,70.0004 5.7598,15.2173 -14.3993,33.4784 -5.7596,45.6524 11.5194,18.261 37.4389,12.1743 48.9586,24.3481 40.3195,39.5655 23.0397,261.7411 -11.5197,267.8279 -37.4389,9.1305 -97.9181,-158.2619 -129.5974,-63.9134 -5.7596,15.2173 46.0792,27.3914 34.5591,36.5218 -34.5591,30.435 -83.5181,33.4787 -118.0776,54.7831 -5.7597,3.0436 0,18.2613 -5.7597,21.3043 -23.0399,12.1739 -54.7192,-6.0867 -71.9985,9.1304 -14.3999,12.1741 -8.6402,36.5223 -23.0398,48.6962 -5.7603,6.0872 -11.5198,-15.2175 -20.1595,-12.1739 -25.9198,6.0871 -28.7998,42.6089 -46.0792,54.783 -8.6397,9.1305 -25.9194,-6.0871 -34.5592,3.0435 -8.6398,6.087 0,24.3481 -8.6398,33.4786 -11.52,15.2174 -43.1996,-12.1741 -51.8394,-12.1741 -71.9986,12.1741 -83.5181,70.0006 -106.5579,118.6967 -5.7599,12.1735 -5.7599,-30.435 -17.2797,-39.5658 -8.6399,-12.1738 -25.9193,-15.2176 -40.3189,-18.261 -25.9198,-6.0871 28.7989,91.305 86.3984,130.8703 5.7595,3.0438 25.9193,6.0872 28.7991,24.3482 8.64,42.6091 -28.7991,27.3917 -34.5591,60.87 -2.8802,9.1303 60.4784,121.7397 69.1186,130.8702 48.9589,51.7399 60.4786,15.2181 92.1582,48.6961 20.1595,21.3046 23.0395,54.7831 43.1991,73.0438 46.0792,33.4786 169.9166,79.1314 167.0369,158.2621 -2.8797,82.1746 -20.1597,63.9135 -80.6386,48.6962 -5.7599,0 -11.5196,3.0432 -14.3996,9.1306 -5.7601,30.435 11.5202,63.9131 -17.2798,88.261 -25.9194,21.3048 -146.8771,51.7399 -149.7571,100.436 0,0 69.1188,100.4351 69.1188,103.4786 2.8798,3.0438 -37.4393,39.5655 -23.0395,51.7399 31.6795,30.4345 63.3586,-15.218 37.439,85.2177 0,6.0871 -5.7595,15.2175 -11.5197,15.2175 -92.1579,-27.3916 -20.1595,-76.0877 -63.3588,-79.1312 -23.0395,0 -43.1992,21.3045 -66.2385,18.2611 -11.5199,-3.0434 -8.6399,-24.348 -17.2799,-27.3918 -17.2794,-6.0867 -34.5591,9.1307 -48.9589,3.0438 -5.7601,-3.0438 5.7598,-21.3046 0,-21.3046 -34.5596,3.0434 -2.88,51.7396 -11.5198,54.783 -40.3192,12.1741 -106.5581,-6.087 -143.9974,9.1306 -11.52,6.087 -5.76,27.3916 -17.2799,33.4787 -11.5194,9.1304 -25.9193,-6.0871 -37.439,3.0433 -8.64,3.0433 2.8799,18.2612 -2.88,24.3479 -2.8801,3.0439 -100.798,30.4351 -112.318,24.348 -5.7598,-6.0868 0,-21.3041 -5.7598,-27.3917 -2.8796,-6.0867 -17.2795,-6.0867 -20.1597,-12.1736 -2.8798,-6.0873 14.4001,-3.0435 11.5201,-9.1306 -11.5201,-39.5654 -92.1586,9.1306 -115.198,-18.2608 0,0 5.7599,-3.0437 5.7599,-6.0873 -17.2797,-12.1739 0,39.5656 -5.7599,60.8702 0,12.1738 -54.719,82.1743 -74.8787,60.8697 -11.5196,-12.1738 20.1597,-30.4349 11.5202,-42.6088 -2.8803,-3.0436 -11.5202,9.1306 -17.2798,9.1306 -5.76,0 -14.3999,-3.0437 -17.2795,-9.1306 -5.7602,-9.1305 14.3994,-21.3045 0,-33.4788 -11.52,-9.1305 -17.2798,-24.3475 -28.7998,-30.4346 -8.6398,-6.087 -20.1596,9.1304 -31.6795,6.0871 -5.7599,-6.0871 0,-21.3048 -5.7599,-27.3917 -14.3997,-12.1739 -11.5196,42.6087 -57.5988,27.3917 -31.6794,-12.1741 -51.8389,-45.6527 -83.5184,-54.7831 -2.88,0 -97.9181,6.0868 -97.9181,6.0868 -11.5198,-6.0868 -11.5198,-27.3914 -23.0396,-33.4782 -2.8801,-6.0873 5.7598,15.2172 0,18.2608 -5.76,3.0434 -17.2795,0 -20.1598,-6.0871 -2.88,-9.1307 11.52,-21.304 5.7602,-27.3915 -43.1996,-45.6524 -92.1581,36.522 -83.5184,39.5657 17.2797,3.0435 34.5593,-3.0437 51.8388,0 11.5198,3.0435 -20.1597,6.0869 -28.7995,12.1739 -5.7596,3.0434 2.8801,18.261 0,21.3047 -71.9987,39.565 -20.1594,-18.2613 -77.7583,-15.2176 -8.6399,0 -141.1174,33.4785 -149.7571,15.2176 -2.88,-6.0872 17.2795,-9.1307 14.3995,-12.1741 -25.9194,-21.3045 -37.4393,70.0002 -37.4393,-36.522 -2.8797,-42.6092 25.9195,-82.1744 28.7995,-124.7835 0,-6.0872 -11.52,-6.0872 -11.52,-15.2176 -2.8796,-15.2175 2.8803,-30.4349 8.64,-45.6523 0,0 40.3195,-70.0006 40.3195,-70.0006 2.8798,-18.2612 5.7597,-85.218 14.3994,-106.5222 23.0397,-48.6962 80.6385,-85.218 112.318,-143.0447 11.5199,-21.3046 -161.2769,-42.609 -172.7966,-51.7394 -8.6399,-9.1307 -2.8803,-27.3914 -11.52,-36.5219 -14.3996,-12.1742 -106.558,27.3912 -112.3174,18.2609 -2.8802,-9.1304 8.6396,-21.3045 2.8795,-27.3915 -86.3985,-82.1741 -28.7993,42.6092 -63.3589,3.0437 -28.7992,-30.4352 -43.1994,-100.4359 -66.2385,-115.653 -8.6397,-9.1305 -25.9194,0 -31.6794,-9.1305 -31.6794,-60.8702 83.5184,-85.2181 43.1994,-136.9576 -5.7602,-9.1304 -74.8788,-15.2176 -89.2787,-79.1307 -25.9194,-112.6099 106.5581,-106.5228 66.2388,-176.5232 -8.6399,-15.2175 -34.5592,-12.174 -40.3192,-30.4351 -2.88,-12.1736 20.1597,-24.348 17.2799,-36.5221 0,-9.1304 -17.2799,3.0438 -23.0396,-3.0433 -2.88,-3.0436 -43.1994,-66.957 -40.3194,-76.0875 2.88,-12.1739 23.0393,-12.1739 25.9194,-24.3478 8.64,-51.7397 -74.8783,-70.0008 -48.9591,-76.0875 8.6399,-3.0436 14.4001,9.1303 20.1597,9.1303 0,0 54.7191,-51.7397 54.7191,-51.7397 2.8798,-15.2171 -34.5593,3.0438 -23.0398,-21.3042 8.6401,-21.3046 28.7996,-36.5217 37.4395,-57.8264 25.9192,-66.9569 -37.4395,-115.6532 -54.7192,-149.1317 -2.8798,-6.0868 2.8801,-15.2173 5.7602,-21.3042 0,-6.0872 -5.7602,-15.2176 0,-18.2612 14.3995,-9.1302 31.6793,0 48.959,-6.0868 5.76,-3.0434 -5.7599,-21.3047 0,-18.2611 17.2795,6.087 28.7992,27.3915 48.9591,27.3915 20.1596,3.0436 97.9181,-24.3481 106.558,-45.6525 8.6396,-21.3045 -54.7192,-24.348 -28.7993,-42.6086 46.0789,-33.4788 100.7977,-45.6529 89.278,-121.7405 -2.88,-42.6086 -109.4377,-24.3478 -83.5183,-70.0003 2.88,-9.1305 17.2798,0 17.2798,-6.0871 2.8798,-9.1304 -11.5199,-18.261 -8.6399,-27.3913 0,-6.0871 8.6399,-6.0871 14.3997,-6.0871 20.1596,0 37.4393,9.1305 57.5987,9.1305 23.0397,0 2.88,-48.6958 11.5199,-73.04385 5.7598,-21.3047 54.7187,-118.69674 48.9591,-170.43598 8.6399,-3.04368 17.2796,-9.13052 25.9194,-21.30468 11.5196,-12.17406 -14.3995,-6.08722 -40.319,-6.08722 0,0 0,0 0,0 -5.7602,-6.08684 -14.4,-3.04318 -20.1596,-3.04318 -5.7601,0 -8.6401,-3.04366 -11.5201,-6.0872 -23.0395,-30.43482 40.3196,-124.78307 63.3589,-136.95687 14.3998,-9.13088 31.6795,9.13014 46.0792,9.13014 215.9958,-9.13014 -224.6357,-27.39139 103.6778,-18.26102 2.8802,0 11.5198,3.0433 14.3999,6.08672 17.2796,33.47873 28.7996,173.47963 100.7983,143.04457 23.0394,-9.13051 -23.0399,-219.1318 43.199,-219.1318 5.7598,0 5.7598,18.2609 14.3999,21.30468 8.6396,6.08684 23.0396,6.08684 34.5589,6.08684 28.7996,6.0871 60.4791,-24.34785 86.3986,-12.17405 20.1598,9.13051 20.1598,39.56533 31.6793,57.82634 14.4001,24.3481 92.1583,179.56673 92.1583,76.0876 0,-21.3043 -43.1988,-15.21759 -60.4785,-33.4786 -28.7996,-27.39128 -23.0399,-97.39191 -77.7589,-106.52242 -8.6398,0 -74.8782,15.21759 -69.1186,-27.39127 2.88,-27.39164 43.1991,-112.60962 17.2797,-146.08823 -8.6398,-9.13038 -71.9986,24.3481 -80.6385,-9.13038 -2.8801,-6.08709 17.2796,0 20.1596,-6.08709 5.7601,-6.0866 -20.1596,-18.26077 -14.3998,-18.26077 28.7995,-9.13063 77.7587,21.3048 86.3985,-39.5657 0,-6.08672 -66.2386,-82.1742 -71.9987,-94.34825 -8.6398,-21.30443 -11.5197,-45.65266 -11.5197,-66.95697 20.1597,3.0433 54.7189,0 63.3588,0 37.439,6.08684 74.8785,27.3914 112.3181,33.47849 -2.8801,9.13038 -2.8801,12.17405 2.8796,9.13038 11.5198,-9.13038 17.2797,-24.34785 28.7994,-27.3914 5.7598,0 -2.8802,15.2176 0,21.30444 8.6396,6.08696 20.1597,3.04366 28.7994,6.08696 20.1599,3.04367 40.3193,3.04367 54.7191,12.17417 8.6399,6.08697 11.52,18.26065 11.52,27.39115 0,3.0438 -5.76,0 -5.76,0 -5.76,3.0438 -17.2799,9.13051 -11.5197,12.1743 2.8801,6.08671 17.2797,-6.08721 20.1594,0 8.6399,15.21747 5.7601,33.47837 0,48.69583 -5.7598,15.21748 -46.0792,24.34798 -34.5593,39.56558 14.3999,21.30468 69.1186,-33.47849 71.9985,-6.08708 2.88,18.26126 -28.7993,51.73938 -11.5196,57.82634 20.1595,9.1305 20.1595,-42.60887 40.319,-45.65241 17.2799,-3.04318 83.5189,57.82647 97.9185,51.73962 2.8796,0 60.4788,-70.00053 80.6383,-33.47873 40.3192,79.13126 -161.2769,161.30546 -51.839,173.47975 23.0394,3.0433 40.3195,-27.39164 63.3589,-27.39164 28.7993,3.04379 -2.88,91.30494 60.4788,45.65252 14.3997,-9.13038 23.0396,-85.21796 48.9592,-100.43544 37.439,-21.30456 77.7584,-30.43506 95.038,12.17406 -2.8801,-9.13052 -5.7598,-24.34799 -2.8801,-27.39165 17.2798,-21.30419 40.3197,-30.43507 54.7191,-48.69608 17.2794,-21.30407 20.1595,-54.78281 37.4392,-76.08736 5.7601,-6.08709 43.1992,9.1305 77.7585,21.30455 14.3996,-3.04353 28.7995,-6.08684 34.5594,-6.08684 20.1595,0 8.6402,42.60863 20.1595,60.86965 8.64,12.17406 28.7995,6.08721 37.4396,18.26101 17.2797,15.2176 25.9193,57.82672 51.8386,54.78316 20.1599,0 43.1995,-15.21758 66.2393,-9.1305 8.6398,3.04354 -11.52,18.26114 -11.52,27.39164 2.88,24.34786 11.52,48.69571 20.1598,73.0438 8.6397,24.34798 37.439,33.47862 60.4784,42.60912 17.2798,6.08672 28.7999,9.1305 37.4395,6.08672 z M 3339.5795,383.64915 c 5.7601,-27.39152 -5.7597,-60.87038 2.8802,-88.26165 8.6398,-27.39165 95.038,51.73938 77.7584,24.34797 -11.5195,-18.26127 -48.9589,-9.13051 -57.5988,-30.43494 -2.8799,-18.26127 23.0394,-33.47848 34.5596,-48.69596 11.5197,-9.1305 -8.6402,36.52179 2.8797,39.56545 20.1595,6.08697 40.3191,-3.04366 57.5988,3.04318 17.2797,6.08733 -23.0397,30.43518 -17.2797,48.69608 5.7601,21.30468 31.6795,24.34835 40.3193,45.65242 5.76,6.08745 -31.6794,36.52202 -77.7586,48.6962 -23.0394,9.13051 -43.199,-27.39164 -63.3589,-42.60875 z"
     class="eu europe"
     id="de"
     style="fill:#000000;fill-opacity:1;stroke:#ffffff;stroke-width:16.5261" /><path
     d="m 2538.9547,3119.7546 c 0,21.3045 37.4394,27.3912 25.9195,57.8263 -2.8797,6.0869 -14.3995,3.0436 -17.2795,6.0869 -2.8799,9.1304 -11.5195,33.4786 -20.1593,60.8704 l 14.3994,33.4781 v 36.522 c 28.7998,3.0433 74.8788,9.1306 77.7586,9.1306 5.7599,6.0869 -8.64,15.2173 -2.8798,21.3044 14.3994,18.261 31.6793,30.435 51.8389,39.5655 46.079,24.3481 54.7187,-57.8267 86.3984,-51.7394 60.4788,9.1307 -2.8797,42.6089 17.2794,51.7394 46.0794,24.3481 5.7602,-6.087 51.839,0 23.0397,3.0435 46.0793,66.9571 92.1583,39.5654 0,0 37.4393,-82.1741 37.4393,-82.1741 23.0397,-18.2612 123.8377,-6.0871 149.7574,-9.1307 43.199,-3.0436 77.7584,-42.6093 120.9577,-42.6093 11.5196,0 -20.1599,15.2177 -23.0397,27.3915 -14.4,63.9135 23.0397,21.3046 46.0792,57.8267 5.7599,9.1305 -8.6397,21.3046 -2.8797,33.4786 2.8797,6.0867 11.5197,-6.0872 17.2796,0 54.7186,42.609 69.1183,48.6957 143.9971,60.8698 86.3984,12.1743 175.6765,15.2178 264.955,30.4351 23.0394,3.0436 46.0789,21.3046 69.1187,24.3478 23.0395,3.0434 46.0792,-15.2172 69.1184,-12.1736 14.3999,3.043 23.0397,24.3475 37.4395,24.3475 5.7599,3.0439 2.88,-15.2171 8.6398,-18.2608 14.3997,-15.2173 37.4393,-21.3046 51.8389,-39.5655 11.5198,-9.1305 2.8803,-30.4351 11.5198,-39.5657 54.719,-45.6524 112.3181,12.1744 164.1572,-12.1737 17.2796,-9.1304 20.1594,-36.5225 37.439,-42.609 2.8798,-3.0437 97.9183,12.1741 100.7982,9.1303 8.6399,-3.0438 -8.64,-15.2173 -11.5199,-24.3478 -5.7599,-30.4351 5.7601,-48.6961 25.9194,-54.783 v 0 c 51.8392,-60.8698 74.8791,-70.0001 100.7985,-115.653 5.7597,-12.1738 -46.0793,-76.0874 -31.6796,-106.5224 20.1595,-42.6091 69.1187,3.0437 63.3587,-57.8265 -2.8801,-51.7394 -89.2781,-45.6523 -71.9987,-60.87 40.3196,-36.522 143.9974,12.174 161.277,-21.3044 2.8801,-12.1739 -37.4394,-109.5659 2.8801,-127.8268 -34.5595,-39.5657 -63.3587,-79.1313 -89.2784,-124.7838 -23.0394,-39.5654 60.4789,-103.4788 0,-149.1313 -8.6396,-6.0871 -20.1594,12.1742 -28.7994,12.1742 -14.3997,-3.0436 -43.1993,-42.6093 -63.3587,-36.5222 -14.3997,6.0869 -20.1598,30.4351 -37.4395,39.5655 -11.5196,3.0436 -25.9193,-3.0433 -37.4393,-3.0433 -77.7581,-9.1309 -143.9972,-76.0874 -227.5155,-76.0874 -14.4,0 -25.9195,18.2606 -40.3194,18.2606 -5.7596,-3.0435 0,-18.2606 -5.7596,-21.304 -11.5201,-6.0875 -28.7997,-12.1743 -37.4395,-3.044 -2.8799,6.0874 2.88,94.3487 -2.8799,100.4357 -5.7597,9.1304 -25.9194,-12.174 -37.4393,-3.0434 0,0 -23.0395,79.1308 -23.0395,79.1308 -20.1599,6.0871 -40.3196,-21.3045 -60.4789,-21.3045 -11.5198,0 -8.6396,24.3479 -20.1594,27.3916 -60.479,24.3478 -95.0386,-39.5659 -141.1173,-63.9134 h -2.8802 c 2.8802,9.1305 5.7599,18.2609 5.7599,27.3912 -2.8797,82.1746 -20.1597,63.9135 -80.6386,48.6962 -5.7599,0 -11.5196,3.0432 -14.3996,9.1306 -5.7601,30.435 11.5202,63.9131 -17.2798,88.261 -25.9194,21.3048 -146.8771,51.7399 -149.7571,100.436 0,0 69.1188,100.4351 69.1188,103.4786 2.8798,3.0438 -37.4393,39.5655 -23.0395,51.7399 31.6795,30.4345 63.3586,-15.218 37.439,85.2177 0,6.0871 -5.7595,15.2175 -11.5197,15.2175 -92.1579,-27.3916 -20.1595,-76.0877 -63.3588,-79.1312 -23.0395,0 -43.1992,21.3045 -66.2385,18.2611 -11.5199,-3.0434 -8.6399,-24.348 -17.2799,-27.3918 -17.2794,-6.0867 -34.5591,9.1307 -48.9589,3.0438 -5.7601,-3.0438 5.7598,-21.3046 0,-21.3046 -34.5596,3.0434 -2.88,51.7396 -11.5198,54.783 -40.3192,12.1741 -106.5581,-6.087 -143.9974,9.1306 -11.52,6.087 -5.76,27.3916 -17.2799,33.4787 -11.5194,9.1304 -25.9193,-6.0871 -37.439,3.0433 -8.64,3.0433 2.8799,18.2612 -2.88,24.3479 -2.8801,3.0439 -100.798,30.4351 -112.318,24.348 -5.7598,-6.0868 0,-21.3041 -5.7598,-27.3917 -2.8796,-6.0867 -17.2795,-6.0867 -20.1597,-12.1736 -2.8798,-6.0873 14.4001,-3.0435 11.5201,-9.1306 -11.5201,-39.5654 -92.1586,9.1306 -115.198,-18.2608 0,0 5.7599,-3.0437 5.7599,-6.0873 -17.2797,-12.1739 0,39.5656 -5.7599,60.8702 0,12.1738 -54.719,82.1743 -74.8787,60.8697 -11.5196,-12.1738 20.1597,-30.4349 11.5202,-42.6088 -2.8803,-3.0436 -11.5202,9.1306 -17.2798,9.1306 -5.76,0 -14.3999,-3.0437 -17.2795,-9.1306 -5.7602,-9.1305 14.3994,-21.3045 0,-33.4788 -11.52,-9.1305 -17.2798,-24.3475 -28.7998,-30.4346 -8.6398,-6.087 -20.1596,9.1304 -31.6795,6.0871 -5.7599,-6.0871 0,-21.3048 -5.7599,-27.3917 -14.3997,-12.1739 -11.5196,42.6087 -57.5988,27.3917 -2.8799,-3.0437 -5.7599,-3.0437 -8.64,-3.0437 z"
     id="at"
     class="europe at"
     style="fill:#000000;fill-opacity:1;stroke:#ffffff;stroke-width:16.5261" /><path
     style="fill:none;fill-opacity:1;stroke:#ff5586;stroke-width:91.67307818;stroke-linejoin:miter;stroke-dasharray:366.69293534,183.34496614;stroke-dashoffset:0;stroke-opacity:1;marker-end:url(#ArrowWideRounded);paint-order:normal"
     d="m 2642.8344,1471.2756 c 0,0 -26.8557,253.2381 176.5837,693.1857 203.4395,439.9475 185.1623,359.6723 309.7188,613.2379 161.8283,329.4415 152.5879,988.0106 152.5879,988.0106"
     id="path1"
     sodipodi:nodetypes="czsc" /></svg>
